<svg width="914" height="914" version="1.1" xmlns="http://www.w3.org/2000/svg" desc="Created with imagetracer.js version 1.2.6" ><path fill="rgb(0,0,0)" stroke="rgb(0,0,0)" stroke-width="1" opacity="1" d="M 0 0 L 914 0 L 914 914 L 0 914 L 0 0 Z M 617 114 L 605 134 Q 606 137 603 136 L 602 141 L 580 177 L 568 200 L 557 217 L 545 240 L 534 257 L 289 684 L 298 688 L 312 662 L 349 600 L 369 563 L 372 560 L 376 551 L 430 459 L 430 457 L 433 454 L 433 452 L 625 120 L 617 114 Z M 304 155 L 293 157 L 281 157 L 280 158 L 241 158 L 240 157 L 213 157 L 212 156 L 204 156 L 203 161 L 206 163 L 230 164 L 244 170 L 248 177 L 251 193 L 251 440 L 250 441 L 249 452 L 246 459 L 241 464 L 234 467 L 203 469 L 203 475 L 204 475 L 300 475 L 304 467 Q 293 466 287 461 L 279 451 L 277 442 L 277 307 L 285 307 L 286 306 L 329 306 L 346 309 Q 367 315 381 328 Q 394 340 401 359 L 406 379 L 427 343 L 424 336 L 416 326 Q 403 311 385 303 Q 372 297 354 296 L 352 296 Q 349 297 350 294 Q 366 289 378 279 Q 390 269 398 256 L 404 241 L 405 228 L 406 227 L 404 205 L 397 188 L 392 181 Q 380 165 360 159 L 339 155 L 304 155 Z M 611 355 Q 608 356 609 361 L 611 362 L 634 363 L 638 365 L 640 369 Q 638 378 632 384 L 511 505 L 510 452 L 483 495 L 483 644 L 480 656 L 478 659 Q 474 664 466 666 L 450 667 L 449 668 L 436 668 L 436 674 L 464 674 L 465 673 L 529 673 L 530 674 L 557 674 L 557 674 L 557 668 L 534 667 L 522 664 L 519 662 L 513 656 L 510 640 L 510 518 L 524 504 Q 526 505 525 503 L 529 500 L 587 573 Q 586 575 589 574 L 596 585 L 624 619 L 661 670 L 666 673 Q 671 672 673 674 L 744 674 L 744 674 L 744 668 L 721 667 L 709 664 L 688 649 Q 660 623 637 594 Q 638 591 635 592 L 624 578 Q 625 575 622 576 L 616 567 L 548 483 L 548 480 L 550 480 L 583 448 L 584 445 L 586 445 L 617 414 Q 619 415 618 412 L 620 412 L 620 410 L 622 410 L 622 408 L 624 408 L 626 405 Q 628 406 627 404 L 632 400 Q 631 397 634 398 L 634 396 L 636 396 L 636 394 L 658 378 L 674 370 L 699 363 L 720 362 L 721 360 L 720 355 L 715 356 L 616 356 L 611 355 Z M 361 825 L 357 827 L 352 833 Q 351 840 353 844 L 360 849 L 369 848 L 374 842 Q 376 834 373 831 Q 370 824 361 825 Z M 427 825 L 423 827 L 418 833 Q 416 841 420 845 L 426 849 Q 432 850 436 848 L 441 840 Q 442 833 439 831 Q 436 824 427 825 Z M 462 825 L 460 826 Q 457 827 457 831 L 457 833 Q 458 837 456 836 L 453 840 L 453 845 L 455 848 L 459 849 Q 466 850 469 847 L 473 849 L 475 848 L 472 844 L 473 838 Q 471 834 469 839 Q 470 841 468 840 Q 461 837 461 829 L 468 829 L 468 831 L 470 831 L 471 829 Q 469 824 462 825 Z M 611 825 L 607 827 L 602 834 L 603 844 L 610 849 Q 616 850 620 848 Q 624 845 625 840 Q 626 833 623 831 Q 620 824 611 825 Z M 289 826 L 289 849 L 292 849 L 292 841 L 302 840 L 305 836 L 304 829 L 302 826 L 289 826 Z M 319 826 L 319 848 L 321 849 L 323 848 L 323 839 L 333 839 Q 336 841 334 848 L 337 849 L 338 848 L 338 826 L 334 826 L 334 835 L 323 835 L 323 826 L 319 826 Z M 387 826 Q 385 831 393 829 L 394 831 L 394 848 L 397 849 L 398 848 L 398 831 L 406 828 L 405 826 L 387 826 Z M 487 826 L 495 848 L 498 849 L 500 847 L 507 830 Q 509 824 504 826 L 498 842 L 491 828 L 487 826 Z M 521 826 L 521 848 L 523 849 L 525 848 L 525 827 L 521 826 Z M 540 826 L 540 848 L 542 849 L 553 849 L 555 848 L 560 842 Q 561 833 558 830 L 555 826 L 540 826 Z M 574 826 L 574 849 L 588 849 L 589 847 L 588 845 L 578 845 L 578 839 L 587 839 L 587 835 L 578 835 L 578 831 L 580 829 L 589 829 L 589 826 L 574 826 Z " /><path fill="rgb(0,0,0)" stroke="rgb(0,0,0)" stroke-width="1" opacity="1" d="M 304.5 161 L 324.5 162 L 338.5 165 Q 353.8 169.7 363 180.5 Q 372.2 190.8 376 206.5 L 378 216.5 L 378 235.5 L 375 250.5 L 368 266.5 L 354.5 282 Q 341.8 291.8 322.5 295 Q 317 293.5 315.5 296 L 277 296 L 277 188.5 L 280 173.5 L 285.5 166 L 291.5 163 L 303.5 162 L 304.5 161 Z " /><path fill="rgb(0,0,0)" stroke="rgb(0,0,0)" stroke-width="1" opacity="1" d="M 293.5 829 Q 298.9 828.4 301 830 L 301 835.5 L 299.5 836 Q 298.2 838.3 293.5 837 Q 290.8 835.8 292 830.5 L 293.5 829 Z " /><path fill="rgb(0,0,0)" stroke="rgb(0,0,0)" stroke-width="1" opacity="1" d="M 360.5 829 Q 367.4 828.1 369 832.5 L 370 839.5 L 367.5 844 L 360.5 845 L 357 842.5 L 356 834.5 L 360.5 829 Z " /><path fill="rgb(0,0,0)" stroke="rgb(0,0,0)" stroke-width="1" opacity="1" d="M 427.5 829 L 431.5 829 L 436 833.5 Q 437.5 842.5 432.5 845 L 429.5 846 L 424 844 Q 421.4 841.7 422 835.5 L 425.5 830 L 427.5 829 Z " /><path fill="rgb(0,0,0)" stroke="rgb(0,0,0)" stroke-width="1" opacity="1" d="M 544 829 Q 552.2 827.5 555 832.5 Q 556.9 841.9 552.5 845 L 544 845 L 544 829 Z " /><path fill="rgb(0,0,0)" stroke="rgb(0,0,0)" stroke-width="1" opacity="1" d="M 611.5 829 L 618 830 L 620 833.5 L 620 840.5 L 616.5 845 L 613.5 846 L 608 844 Q 605.4 841.7 606 835.5 L 609.5 830 L 611.5 829 Z " /><path fill="rgb(0,0,0)" stroke="rgb(0,0,0)" stroke-width="1" opacity="1" d="M 458.5 838 L 460.5 838 L 466 843.5 Q 466.9 846.5 462.5 845 L 460.5 845 L 457 842.5 Q 456.3 838.8 458.5 838 Z " /><path fill="rgb(246,246,246)" stroke="rgb(246,246,246)" stroke-width="1" opacity="1" d="M 616.5 114 L 625 119.5 L 433 451.5 L 433 453.5 L 430 456.5 L 430 458.5 L 376 550.5 L 372 559.5 L 369 562.5 L 349 599.5 L 312 661.5 L 298 688 L 289 683.5 L 534 256.5 L 545 239.5 L 557 216.5 L 568 199.5 L 580 176.5 L 602 140.5 L 603 136 Q 606 137.3 605 133.5 L 616.5 114 Z " /><path fill="rgb(246,246,246)" stroke="rgb(246,246,246)" stroke-width="1" opacity="1" d="M 303.5 155 L 338.5 155 L 359.5 159 Q 380.2 165.3 392 180.5 L 397 187.5 L 404 204.5 L 406 226.5 L 405 227.5 L 404 240.5 L 398 255.5 Q 389.9 269.4 377.5 279 Q 365.6 288.7 350 294 Q 348.9 296.7 351.5 296 L 353.5 296 Q 371.6 296.9 384.5 303 Q 403.1 311.4 416 325.5 L 424 335.5 L 427 342.5 L 405.5 379 L 401 358.5 Q 393.7 340.3 380.5 328 Q 366.6 314.9 345.5 309 L 328.5 306 L 285.5 306 L 284.5 307 L 277 307 L 277 441.5 L 279 450.5 L 286.5 461 Q 293.4 466.2 304 467 L 299.5 475 L 203.5 475 L 203 474.5 L 203 469 L 233.5 467 L 240.5 464 L 246 458.5 L 249 451.5 L 250 440.5 L 251 439.5 L 251 192.5 L 248 176.5 L 244 170 L 229.5 164 L 205.5 163 L 203 160.5 L 204 156 L 211.5 156 L 212.5 157 L 239.5 157 L 240.5 158 L 279.5 158 L 280.5 157 L 292.5 157 L 303.5 155 Z M 305 161 L 304 162 L 292 163 L 286 166 L 280 174 L 277 189 L 277 296 L 316 296 Q 317 294 323 295 Q 342 292 355 282 L 368 267 L 375 251 L 378 236 L 378 217 L 376 207 Q 372 191 363 181 Q 354 170 339 165 L 325 162 L 305 161 Z " /><path fill="rgb(246,246,246)" stroke="rgb(246,246,246)" stroke-width="1" opacity="1" d="M 610.5 355 L 615.5 356 L 714.5 356 L 720 355 L 721 359.5 L 720 362 L 698.5 363 L 673.5 370 L 657.5 378 L 636 394 L 636 396 L 634 396 L 634 398 Q 631.3 396.9 632 399.5 L 627 403.5 Q 627.8 405.8 625.5 405 L 624 408 L 622 408 L 622 410 L 620 410 L 620 412 L 618 412 Q 619.1 414.7 616.5 414 L 585.5 445 L 584 445 L 582.5 448 L 549.5 480 L 548 480 L 548 482.5 L 616 566.5 L 622 576 Q 624.7 574.9 624 577.5 L 635 592 Q 637.7 590.9 637 593.5 Q 660.1 623.4 687.5 649 L 708.5 664 L 720.5 667 L 744 668 L 744 673.5 L 743.5 674 L 672.5 674 Q 671 671.5 665.5 673 L 661 669.5 L 624 618.5 L 596 584.5 L 589 574 Q 586.3 575.1 587 572.5 L 528.5 500 L 525 502.5 Q 525.8 504.8 523.5 504 L 510 517.5 L 510 639.5 L 513 655.5 L 518.5 662 L 521.5 664 L 533.5 667 L 557 668 L 557 673.5 L 556.5 674 L 529.5 674 L 528.5 673 L 464.5 673 L 463.5 674 L 436 674 L 436 668 L 448.5 668 L 449.5 667 L 465.5 666 Q 473.7 664.2 478 658.5 L 480 655.5 L 483 643.5 L 483 494.5 L 509.5 452 L 510.5 505 L 632 383.5 Q 638.4 378.4 640 368.5 L 637.5 365 L 633.5 363 L 610.5 362 L 609 360.5 Q 608 356 610.5 355 Z " /><path fill="rgb(246,246,246)" stroke="rgb(246,246,246)" stroke-width="1" opacity="1" d="M 360.5 825 Q 370.3 824.3 373 830.5 Q 375.5 834 374 841.5 L 368.5 848 L 359.5 849 L 353 843.5 Q 350.5 840 352 832.5 L 356.5 827 L 360.5 825 Z M 361 829 L 356 835 L 357 843 L 361 845 L 368 844 L 370 840 L 369 833 Q 367 828 361 829 Z " /><path fill="rgb(246,246,246)" stroke="rgb(246,246,246)" stroke-width="1" opacity="1" d="M 426.5 825 Q 436.3 824.3 439 830.5 Q 441.6 833.4 441 839.5 L 435.5 848 Q 432.3 850.3 425.5 849 L 420 844.5 Q 416.2 841.3 418 832.5 L 422.5 827 L 426.5 825 Z M 428 829 L 426 830 L 422 836 Q 421 842 424 844 L 430 846 L 433 845 Q 438 843 436 834 L 432 829 L 428 829 Z " /><path fill="rgb(246,246,246)" stroke="rgb(246,246,246)" stroke-width="1" opacity="1" d="M 461.5 825 Q 469.1 823.9 471 828.5 L 469.5 831 L 468 831 L 467.5 829 L 461 829 Q 461 837.1 467.5 840 Q 469.8 840.8 469 838.5 Q 471 834 473 837.5 L 472 843.5 L 475 847.5 L 472.5 849 L 468.5 847 Q 465.9 850.4 458.5 849 L 455 848 L 453 844.5 L 453 839.5 L 455.5 836 Q 458.5 836.9 457 832.5 L 457 830.5 Q 456.5 826.5 459.5 826 L 461.5 825 Z M 459 838 Q 456 839 457 843 L 461 845 L 463 845 Q 467 846 466 844 L 461 838 L 459 838 Z " /><path fill="rgb(246,246,246)" stroke="rgb(246,246,246)" stroke-width="1" opacity="1" d="M 610.5 825 Q 620.3 824.3 623 830.5 Q 625.8 833.2 625 839.5 Q 623.8 845.3 619.5 848 Q 616.3 850.3 609.5 849 L 603 843.5 L 602 833.5 L 606.5 827 L 610.5 825 Z M 612 829 L 610 830 L 606 836 Q 605 842 608 844 L 614 846 L 617 845 L 620 841 L 620 834 L 618 830 L 612 829 Z " /><path fill="rgb(246,246,246)" stroke="rgb(246,246,246)" stroke-width="1" opacity="1" d="M 289 826 L 301.5 826 L 304 828.5 L 305 835.5 L 301.5 840 L 292 841 L 292 849 L 289 849 L 289 826 Z M 294 829 L 292 831 Q 291 836 294 837 Q 298 838 300 836 L 301 836 L 301 830 Q 299 828 294 829 Z " /><path fill="rgb(246,246,246)" stroke="rgb(246,246,246)" stroke-width="1" opacity="1" d="M 319 826 L 323 826 L 323 835 L 334 835 L 334 826 L 338 826 L 338 847.5 L 336.5 849 L 334 847.5 Q 335.8 840.7 332.5 839 L 323 839 L 323 847.5 L 320.5 849 L 319 847.5 L 319 826 Z " /><path fill="rgb(246,246,246)" stroke="rgb(246,246,246)" stroke-width="1" opacity="1" d="M 387 826 L 404.5 826 L 406 827.5 L 398 830.5 L 398 847.5 L 396.5 849 L 394 847.5 L 394 830.5 L 392.5 829 Q 385.2 831.3 387 826 Z " /><path fill="rgb(246,246,246)" stroke="rgb(246,246,246)" stroke-width="1" opacity="1" d="M 487 826 L 491 827.5 L 497.5 842 L 504 826 Q 508.5 824.3 507 829.5 L 500 846.5 L 497.5 849 L 495 847.5 L 487 826 Z " /><path fill="rgb(246,246,246)" stroke="rgb(246,246,246)" stroke-width="1" opacity="1" d="M 521 826 L 525 826.5 L 525 847.5 L 522.5 849 L 521 847.5 L 521 826 Z " /><path fill="rgb(246,246,246)" stroke="rgb(246,246,246)" stroke-width="1" opacity="1" d="M 540 826 L 554.5 826 L 558 829.5 Q 561.3 833.2 560 841.5 L 554.5 848 L 552.5 849 L 541.5 849 L 540 847.5 L 540 826 Z M 544 829 L 544 845 L 553 845 Q 557 842 555 833 Q 552 827 544 829 Z " /><path fill="rgb(246,246,246)" stroke="rgb(246,246,246)" stroke-width="1" opacity="1" d="M 574 826 L 588.5 826 L 589 829 L 579.5 829 L 578 830.5 L 578 835 L 587 835 L 587 839 L 578 839 L 578 845 L 587.5 845 L 589 846.5 L 587.5 849 L 574 849 L 574 826 Z " /></svg>